<svg width="20" height="20" viewBox="0 0 20 20" fill="none" xmlns="http://www.w3.org/2000/svg">
<path id="A/C" d="M8.6 20C7.75 20 7.10417 19.7458 6.6625 19.2375C6.22083 18.7292 6 18.15 6 17.5C6 17.0667 6.09583 16.6458 6.2875 16.2375C6.47917 15.8292 6.775 15.4917 7.175 15.225C7.54167 14.9917 7.8375 14.6917 8.0625 14.325C8.2875 13.9583 8.44167 13.5667 8.525 13.15L8.225 13C8.125 12.95 8.03333 12.8917 7.95 12.825L5.65 13.65C5.36667 13.75 5.09167 13.8333 4.825 13.9C4.55833 13.9667 4.28333 14 4 14C2.95 14 2.02083 13.5417 1.2125 12.625C0.404167 11.7083 0 10.3667 0 8.6C0 7.75 0.254167 7.10417 0.7625 6.6625C1.27083 6.22083 1.84167 6 2.475 6C2.90833 6 3.33333 6.09583 3.75 6.2875C4.16667 6.47917 4.50833 6.775 4.775 7.175C5.00833 7.54167 5.30833 7.8375 5.675 8.0625C6.04167 8.2875 6.43333 8.44167 6.85 8.525L7 8.225C7.05 8.125 7.10833 8.03333 7.175 7.95L6.35 5.65C6.25 5.36667 6.16667 5.09167 6.1 4.825C6.03333 4.55833 6 4.29167 6 4.025C6 2.95833 6.45833 2.02083 7.375 1.2125C8.29167 0.404167 9.63333 0 11.4 0C12.25 0 12.8958 0.254167 13.3375 0.7625C13.7792 1.27083 14 1.84167 14 2.475C14 2.90833 13.9042 3.33333 13.7125 3.75C13.5208 4.16667 13.225 4.50833 12.825 4.775C12.4583 5.00833 12.1625 5.30833 11.9375 5.675C11.7125 6.04167 11.5583 6.43333 11.475 6.85L11.775 7C11.875 7.05 11.9667 7.10833 12.05 7.175L14.35 6.325C14.6333 6.225 14.9042 6.14583 15.1625 6.0875C15.4208 6.02917 15.6917 6 15.975 6C17.325 6 18.3333 6.55833 19 7.675C19.6667 8.79167 20 10.0333 20 11.4C20 12.25 19.7333 12.8958 19.2 13.3375C18.6667 13.7792 18.075 14 17.425 14C17.0083 14 16.6042 13.9042 16.2125 13.7125C15.8208 13.5208 15.4917 13.225 15.225 12.825C14.9917 12.4583 14.6917 12.1625 14.325 11.9375C13.9583 11.7125 13.5667 11.5583 13.15 11.475L13 11.775C12.95 11.875 12.8917 11.9667 12.825 12.05L13.65 14.35C13.75 14.6167 13.8333 14.8708 13.9 15.1125C13.9667 15.3542 14 15.6083 14 15.875C14.0167 16.9583 13.5667 17.9167 12.65 18.75C11.7333 19.5833 10.3833 20 8.6 20ZM10 11.5C10.4167 11.5 10.7708 11.3542 11.0625 11.0625C11.3542 10.7708 11.5 10.4167 11.5 10C11.5 9.58333 11.3542 9.22917 11.0625 8.9375C10.7708 8.64583 10.4167 8.5 10 8.5C9.58333 8.5 9.22917 8.64583 8.9375 8.9375C8.64583 9.22917 8.5 9.58333 8.5 10C8.5 10.4167 8.64583 10.7708 8.9375 11.0625C9.22917 11.3542 9.58333 11.5 10 11.5ZM8.85 6.7C8.95 6.66667 9.05417 6.6375 9.1625 6.6125C9.27083 6.5875 9.375 6.56667 9.475 6.55C9.60833 5.85 9.8625 5.2 10.2375 4.6C10.6125 4 11.1083 3.5 11.725 3.1C11.8083 3.03333 11.875 2.95 11.925 2.85C11.975 2.75 12 2.625 12 2.475C12 2.34167 11.95 2.22917 11.85 2.1375C11.75 2.04583 11.6 2 11.4 2C10.7667 2 10.05 2.1375 9.25 2.4125C8.45 2.6875 8.03333 3.225 8 4.025C8 4.175 8.02083 4.31667 8.0625 4.45C8.10417 4.58333 8.14167 4.70833 8.175 4.825L8.85 6.7ZM4 12C4.23333 12 4.50833 11.9417 4.825 11.825L6.7 11.15C6.66667 11.05 6.6375 10.9458 6.6125 10.8375C6.5875 10.7292 6.56667 10.625 6.55 10.525C5.85 10.3917 5.2 10.1375 4.6 9.7625C4 9.3875 3.5 8.89167 3.1 8.275C3.03333 8.19167 2.94583 8.125 2.8375 8.075C2.72917 8.025 2.60833 8 2.475 8C2.325 8 2.20833 8.05 2.125 8.15C2.04167 8.25 2 8.4 2 8.6C2 9.5 2.17083 10.2917 2.5125 10.975C2.85417 11.6583 3.35 12 4 12ZM8.6 18C9.38333 18 10.1542 17.8417 10.9125 17.525C11.6708 17.2083 12.0333 16.6583 12 15.875C12 15.7417 11.9792 15.6167 11.9375 15.5C11.8958 15.3833 11.8583 15.275 11.825 15.175L11.15 13.3C11.05 13.3333 10.9458 13.3625 10.8375 13.3875C10.7292 13.4125 10.625 13.4333 10.525 13.45C10.3917 14.15 10.1375 14.8 9.7625 15.4C9.3875 16 8.89167 16.5 8.275 16.9C8.19167 16.9667 8.12083 17.0542 8.0625 17.1625C8.00417 17.2708 7.98333 17.3833 8 17.5C8.01667 17.6333 8.06667 17.75 8.15 17.85C8.23333 17.95 8.38333 18 8.6 18ZM17.425 12C17.575 12 17.7083 11.9583 17.825 11.875C17.9417 11.7917 18 11.6333 18 11.4C18 10.7667 17.8667 10.0458 17.6 9.2375C17.3333 8.42917 16.7917 8.01667 15.975 8C15.825 8 15.6833 8.01667 15.55 8.05C15.4167 8.08333 15.2917 8.11667 15.175 8.15L13.3 8.85C13.3333 8.95 13.3625 9.05417 13.3875 9.1625C13.4125 9.27083 13.4333 9.375 13.45 9.475C14.15 9.60833 14.8 9.8625 15.4 10.2375C16 10.6125 16.5 11.1083 16.9 11.725C16.95 11.8083 17.025 11.875 17.125 11.925C17.225 11.975 17.325 12 17.425 12Z" fill="#DFF2FB"/>
</svg>
