<svg width="61" height="61" viewBox="0 0 61 61" fill="none" xmlns="http://www.w3.org/2000/svg">
<circle cx="30.5" cy="30.5" r="30.5" fill="#DFF2FB"/>
<path d="M50 30C50 41.0457 41.0457 50 30 50C18.9543 50 10 41.0457 10 30C10 18.9543 18.9543 10 30 10C41.0457 10 50 18.9543 50 30ZM14.5 30C14.5 38.5604 21.4396 45.5 30 45.5C38.5604 45.5 45.5 38.5604 45.5 30C45.5 21.4396 38.5604 14.5 30 14.5C21.4396 14.5 14.5 21.4396 14.5 30Z" fill="#692323"/>
<path d="M21.9 35.156C21.3107 35.156 20.7993 35.052 20.366 34.844C19.9327 34.6273 19.573 34.3197 19.287 33.921C19.0097 33.5223 18.8017 33.0327 18.663 32.452C18.533 31.8713 18.468 31.2083 18.468 30.463C18.468 29.7263 18.533 29.0677 18.663 28.487C18.8017 27.8977 19.0097 27.4037 19.287 27.005C19.573 26.6063 19.9327 26.303 20.366 26.095C20.7993 25.8783 21.3107 25.77 21.9 25.77C23.0787 25.77 23.9453 26.1817 24.5 27.005C25.0547 27.8283 25.332 28.981 25.332 30.463C25.332 31.945 25.0547 33.0977 24.5 33.921C23.9453 34.7443 23.0787 35.156 21.9 35.156ZM21.9 33.765C22.2033 33.765 22.459 33.7087 22.667 33.596C22.875 33.4747 23.0397 33.3057 23.161 33.089C23.291 32.8723 23.382 32.608 23.434 32.296C23.4947 31.9753 23.525 31.62 23.525 31.23V29.683C23.525 28.903 23.4037 28.2877 23.161 27.837C22.927 27.3863 22.5067 27.161 21.9 27.161C21.2933 27.161 20.8687 27.3863 20.626 27.837C20.392 28.2877 20.275 28.903 20.275 29.683V31.243C20.275 32.023 20.392 32.6383 20.626 33.089C20.8687 33.5397 21.2933 33.765 21.9 33.765ZM26.8739 35V25.926H32.8019V27.33H28.5769V29.696H32.3859V31.1H28.5769V35H26.8739ZM34.6688 35V25.926H40.5968V27.33H36.3718V29.696H40.1808V31.1H36.3718V35H34.6688Z" fill="#692323"/>
</svg>
