<svg width="101" height="103" viewBox="0 0 101 103" fill="none" xmlns="http://www.w3.org/2000/svg">
<g filter="url(#filter0_d_6_694)">
<g clip-path="url(#clip0_6_694)">
<rect x="20" y="21" width="61" height="61" rx="30.5" fill="white"/>
<circle cx="50.5" cy="51.5" r="30.5" fill="#DFF2FB"/>
<path d="M70 51C70 62.0457 61.0457 71 50 71C38.9543 71 30 62.0457 30 51C30 39.9543 38.9543 31 50 31C61.0457 31 70 39.9543 70 51ZM34.5 51C34.5 59.5604 41.4396 66.5 50 66.5C58.5604 66.5 65.5 59.5604 65.5 51C65.5 42.4396 58.5604 35.5 50 35.5C41.4396 35.5 34.5 42.4396 34.5 51Z" fill="#287D09"/>
<path d="M45.9 56.156C45.3107 56.156 44.7993 56.052 44.366 55.844C43.9327 55.6273 43.573 55.3197 43.287 54.921C43.0097 54.5223 42.8017 54.0327 42.663 53.452C42.533 52.8713 42.468 52.2083 42.468 51.463C42.468 50.7263 42.533 50.0677 42.663 49.487C42.8017 48.8977 43.0097 48.4037 43.287 48.005C43.573 47.6063 43.9327 47.303 44.366 47.095C44.7993 46.8783 45.3107 46.77 45.9 46.77C47.0787 46.77 47.9453 47.1817 48.5 48.005C49.0547 48.8283 49.332 49.981 49.332 51.463C49.332 52.945 49.0547 54.0977 48.5 54.921C47.9453 55.7443 47.0787 56.156 45.9 56.156ZM45.9 54.765C46.2033 54.765 46.459 54.7087 46.667 54.596C46.875 54.4747 47.0397 54.3057 47.161 54.089C47.291 53.8723 47.382 53.608 47.434 53.296C47.4947 52.9753 47.525 52.62 47.525 52.23V50.683C47.525 49.903 47.4037 49.2877 47.161 48.837C46.927 48.3863 46.5067 48.161 45.9 48.161C45.2933 48.161 44.8687 48.3863 44.626 48.837C44.392 49.2877 44.275 49.903 44.275 50.683V52.243C44.275 53.023 44.392 53.6383 44.626 54.089C44.8687 54.5397 45.2933 54.765 45.9 54.765ZM52.2519 49.487H52.1219V56H50.6659V46.926H52.7589L55.1379 53.439H55.2679V46.926H56.7239V56H54.6309L52.2519 49.487Z" fill="#287D09"/>
</g>
</g>
<defs>
<filter id="filter0_d_6_694" x="-0.5" y="0.5" width="102" height="102" filterUnits="userSpaceOnUse" color-interpolation-filters="sRGB">
<feFlood flood-opacity="0" result="BackgroundImageFix"/>
<feColorMatrix in="SourceAlpha" type="matrix" values="0 0 0 0 0 0 0 0 0 0 0 0 0 0 0 0 0 0 127 0" result="hardAlpha"/>
<feOffset/>
<feGaussianBlur stdDeviation="10.25"/>
<feComposite in2="hardAlpha" operator="out"/>
<feColorMatrix type="matrix" values="0 0 0 0 0.278571 0 0 0 0 0.891667 0 0 0 0 0.0631597 0 0 0 1 0"/>
<feBlend mode="normal" in2="BackgroundImageFix" result="effect1_dropShadow_6_694"/>
<feBlend mode="normal" in="SourceGraphic" in2="effect1_dropShadow_6_694" result="shape"/>
</filter>
<clipPath id="clip0_6_694">
<rect x="20" y="21" width="61" height="61" rx="30.5" fill="white"/>
</clipPath>
</defs>
</svg>
