<svg width="20" height="20" viewBox="0 0 20 20" fill="none" xmlns="http://www.w3.org/2000/svg">
<path id="Vector" d="M5 17.7778L7.77778 13.3333H6.11111V10L3.33333 14.4444H5V17.7778ZM2.22222 7.77778H8.88889V2.22222H2.22222V7.77778ZM2.22222 17.7778H8.88889V10H2.22222V17.7778ZM0 20V2.22222C0 1.61111 0.217593 1.08796 0.652778 0.652778C1.08796 0.217593 1.61111 0 2.22222 0H8.88889C9.5 0 10.0231 0.217593 10.4583 0.652778C10.8935 1.08796 11.1111 1.61111 11.1111 2.22222V10H12.5C13.037 10 13.4954 10.1898 13.875 10.5694C14.2546 10.9491 14.4444 11.4074 14.4444 11.9444V17.0833C14.4444 17.3981 14.5741 17.6852 14.8333 17.9444C15.0926 18.2037 15.3796 18.3333 15.6944 18.3333C16.0278 18.3333 16.3194 18.2037 16.5694 17.9444C16.8194 17.6852 16.9444 17.3981 16.9444 17.0833V6.66667H16.6667C16.3519 6.66667 16.088 6.56019 15.875 6.34722C15.662 6.13426 15.5556 5.87037 15.5556 5.55556V3.33333H16.1111V1.66667H17.2222V3.33333H18.3333V1.66667H19.4444V3.33333H20V5.55556C20 5.87037 19.8935 6.13426 19.6806 6.34722C19.4676 6.56019 19.2037 6.66667 18.8889 6.66667H18.6111V17.0833C18.6111 17.8611 18.3287 18.5417 17.7639 19.125C17.1991 19.7083 16.5093 20 15.6944 20C14.8981 20 14.213 19.7083 13.6389 19.125C13.0648 18.5417 12.7778 17.8611 12.7778 17.0833V11.9444C12.7778 11.8519 12.7546 11.7824 12.7083 11.7361C12.662 11.6898 12.5926 11.6667 12.5 11.6667H11.1111V20H0Z" fill="#DFF2FB"/>
</svg>
