<svg width="15" height="16" viewBox="0 0 15 16" fill="none" xmlns="http://www.w3.org/2000/svg">
<path id="Vector" d="M9.975 11.525L11.025 10.475L8.25 7.7V4.25H6.75V8.3L9.975 11.525ZM7.5 15.5C6.4625 15.5 5.4875 15.3031 4.575 14.9094C3.6625 14.5156 2.86875 13.9813 2.19375 13.3063C1.51875 12.6313 0.984375 11.8375 0.590625 10.925C0.196875 10.0125 0 9.0375 0 8C0 6.9625 0.196875 5.9875 0.590625 5.075C0.984375 4.1625 1.51875 3.36875 2.19375 2.69375C2.86875 2.01875 3.6625 1.48438 4.575 1.09063C5.4875 0.696875 6.4625 0.5 7.5 0.5C8.5375 0.5 9.5125 0.696875 10.425 1.09063C11.3375 1.48438 12.1313 2.01875 12.8063 2.69375C13.4813 3.36875 14.0156 4.1625 14.4094 5.075C14.8031 5.9875 15 6.9625 15 8C15 9.0375 14.8031 10.0125 14.4094 10.925C14.0156 11.8375 13.4813 12.6313 12.8063 13.3063C12.1313 13.9813 11.3375 14.5156 10.425 14.9094C9.5125 15.3031 8.5375 15.5 7.5 15.5ZM7.5 14C9.1625 14 10.5781 13.4156 11.7469 12.2469C12.9156 11.0781 13.5 9.6625 13.5 8C13.5 6.3375 12.9156 4.92188 11.7469 3.75313C10.5781 2.58438 9.1625 2 7.5 2C5.8375 2 4.42188 2.58438 3.25313 3.75313C2.08438 4.92188 1.5 6.3375 1.5 8C1.5 9.6625 2.08438 11.0781 3.25313 12.2469C4.42188 13.4156 5.8375 14 7.5 14Z" fill="#DFF2FB"/>
</svg>
