<svg width="62" height="62" viewBox="0 0 62 62" fill="none" xmlns="http://www.w3.org/2000/svg">
<path id="Vector" fill-rule="evenodd" clip-rule="evenodd" d="M29.6126 0.0520755C16.8978 0.757926 5.16845 9.72698 1.48917 21.5572C0.318313 25.3219 -0.0790808 28.1157 0.0126861 31.9376C0.610355 56.8424 29.6178 70.8066 49.6458 55.831C73.9436 37.6627 59.8331 -1.62561 29.6126 0.0520755ZM30.7868 4.04801C29.816 4.29229 29.9923 5.6837 30.9914 5.66278C31.9142 5.64343 32.1438 4.44368 31.2923 4.08938C31.1474 4.02906 31.0188 3.98392 31.0065 3.98903C30.9943 3.99414 30.8954 4.02072 30.7868 4.04801ZM27.176 4.78587C26.893 5.15001 27.0857 5.627 27.5169 5.63014C27.8913 5.63282 28.0851 5.07529 27.7993 4.81773C27.6288 4.66405 27.2843 4.64643 27.176 4.78587ZM34.1256 4.78587C33.8427 5.15001 34.0353 5.627 34.4666 5.63014C34.8409 5.63282 35.0348 5.07529 34.749 4.81773C34.5785 4.66405 34.2339 4.64643 34.1256 4.78587ZM23.5529 5.34819C23.1809 5.71862 23.1718 6.17131 23.5296 6.50422C24.0536 6.99167 24.9428 6.67126 24.9428 5.99498C24.9428 5.15756 24.126 4.77746 23.5529 5.34819ZM37.4995 5.18091C37.2307 5.31398 36.9987 5.80191 37.0638 6.09714C37.1987 6.70862 38.0314 6.96776 38.4671 6.53387C39.143 5.86065 38.3543 4.75764 37.4995 5.18091ZM20.4063 6.98585C20.2415 7.22013 20.2515 7.3764 20.4444 7.58261C20.7467 7.90577 21.2311 7.71285 21.2311 7.26921C21.2311 6.84711 20.6454 6.64586 20.4063 6.98585ZM40.8446 7.01369C40.5581 7.44923 41.0442 7.93338 41.4816 7.64805C41.6207 7.55721 41.6851 7.44498 41.6851 7.29327C41.6851 6.82879 41.0953 6.63265 40.8446 7.01369ZM17.2236 8.07313C16.0991 8.31363 16.3688 10.0153 17.5267 9.9851C17.9215 9.9748 18.2136 9.77952 18.3615 9.42687C18.6692 8.69349 18.0069 7.90569 17.2236 8.07313ZM44.0864 8.13943C43.3281 8.48469 43.3633 9.60154 44.1424 9.91196C44.7919 10.1708 45.5021 9.72596 45.5021 9.0603C45.5021 8.28327 44.7891 7.81942 44.0864 8.13943ZM29.7602 8.66927C26.8138 8.84158 23.2228 9.62301 22.6704 10.2121C21.8891 11.0453 22.3465 16.8295 23.4556 20.1416C25.0415 24.8777 29.0807 30.0803 31.0458 29.9181C32.6439 29.7861 36.3145 25.1989 37.7989 21.4785C39.5589 17.0678 40.0489 10.6062 38.6759 9.91338C37.2032 9.17025 32.4753 8.5104 29.7602 8.66927ZM14.4339 10.9274C14.0519 11.1161 14.2091 11.7657 14.6368 11.7657C14.8645 11.7657 15.0711 11.5299 15.0711 11.27C15.0711 10.9834 14.7117 10.7902 14.4339 10.9274ZM16.9882 12.477C15.6721 12.7586 15.8837 14.675 17.231 14.6755C18.1074 14.6759 18.5967 13.9219 18.235 13.1285C18.0085 12.6319 17.5019 12.3672 16.9882 12.477ZM44.026 12.6228C43.0669 13.2525 43.481 14.6764 44.6229 14.6753C45.7601 14.6744 46.1903 13.2797 45.247 12.6521C44.9068 12.4258 44.3465 12.4124 44.026 12.6228ZM12.1096 12.6687C11.2421 12.9744 10.9599 14.0334 11.5573 14.7405C12.2248 15.5305 13.6144 15.1339 13.7686 14.1095C13.9129 13.1512 12.9971 12.3558 12.1096 12.6687ZM49.1711 12.6299C47.7727 13.0497 48 15.1475 49.444 15.1475C50.6523 15.1475 51.209 13.9133 50.4019 13.0237C50.0375 12.622 49.6309 12.4919 49.1711 12.6299ZM29.758 12.8426C29.4758 13.0348 29.4926 12.9962 28.9259 14.7543C26.8435 21.2143 26.8263 20.5741 29.0826 20.5741C30.2385 20.5741 30.4805 20.5932 30.4464 20.6816C30.407 20.7837 29.7491 23.1374 29.4337 24.3045C29.2009 25.1658 29.3826 25.6075 29.9698 25.6075C30.5065 25.6075 30.5119 25.5998 31.4562 23.484C31.6396 23.0731 32.2037 21.8093 32.7097 20.6755C33.6949 18.4683 33.6907 18.4815 33.5106 18.1345C33.3229 17.7731 33.1854 17.7428 31.7312 17.7428C30.6772 17.7428 30.3841 17.7209 30.4158 17.6445C30.4381 17.5905 30.837 16.6969 31.3023 15.6587C32.273 13.4924 32.3176 13.3228 32.0122 12.9612L31.7994 12.7095H30.8764C30.1388 12.7095 29.914 12.7362 29.758 12.8426ZM10.3327 16.7247C7.82764 17.058 6.5448 18.5623 6.54266 21.1691L6.54203 21.882L6.26144 22.0152C5.77252 22.2474 5.67712 22.5907 5.67507 24.1251C5.6738 25.0651 5.6291 25.692 5.51665 26.3471C5.13481 28.5713 4.95957 32.152 5.14745 33.8896L5.21386 34.5038L7.31921 34.4795C9.73421 34.4516 9.81595 34.4303 10.2347 33.7209L10.4512 33.3541L10.4759 30.9075L10.5007 28.4609L10.2278 28.4169C8.56462 28.1481 7.72663 26.8344 7.72663 24.4957V23.4054H11.1698H14.6129L14.5852 24.762C14.5428 26.834 13.4714 28.4381 12.1294 28.4387C12.0008 28.4387 11.9912 28.6033 11.9912 30.7943C11.9912 33.3003 11.9429 33.7612 11.6321 34.2173L11.4431 34.4945H15.2961C20.6797 34.4945 20.9941 34.6401 20.9941 37.1321V38.166L20.2439 38.4441L19.4936 38.7223V37.6248V36.5272L19.2628 36.2973L19.032 36.0674H12.2327H5.43341L5.47282 36.2444C5.49445 36.3417 5.60533 36.846 5.71913 37.3651C6.28711 39.9559 7.60833 43.2235 8.83012 45.0593C9.1412 45.5266 9.21346 45.7049 9.25326 46.1028C9.70428 50.6145 14.9908 54.9399 20.3167 55.1547L21.4951 55.2023L22.37 55.6162C23.9758 56.3761 26.0593 56.97 28.3386 57.3175C29.255 57.4573 33.2205 57.4568 34.0247 57.3168C35.1802 57.1157 36.2813 56.8945 36.7098 56.7774C38.1174 56.3929 39.4473 55.9041 40.4276 55.4114C40.8287 55.2098 40.9788 55.1783 41.5446 55.1771C46.875 55.1653 52.3907 50.7571 52.873 46.1234C52.9123 45.746 52.9788 45.5552 53.1435 45.3477C53.4881 44.9133 54.3533 43.2905 54.9045 42.0445C56.9517 37.4172 57.5493 32.5114 56.6789 27.4794L56.5062 26.4808L55.7886 25.8672C55.394 25.5297 54.8293 25.0293 54.5338 24.7552C54.055 24.311 53.9811 24.2683 53.8542 24.362C53.7759 24.4198 53.5379 24.5993 53.3253 24.7609C52.0096 25.7609 49.974 25.6671 48.732 24.5491L48.3159 24.1745L47.976 24.4866C47.789 24.6582 47.5853 24.8155 47.5234 24.836C47.4313 24.8666 47.4107 25.1345 47.4107 26.3005L47.4108 27.7275L47.6296 27.9455L47.8483 28.1635L51.0254 28.2028C54.5672 28.2466 54.5002 28.2362 55.1045 28.838C55.7238 29.4548 55.7002 29.2723 55.7254 33.6387C55.7602 39.6727 56.0193 39.3895 50.424 39.4347C46.16 39.4692 46.5025 39.3855 46.5025 40.393C46.5025 40.739 46.4936 41.021 46.4827 41.0196C46.4718 41.0182 46.1254 40.8502 45.7127 40.6461L44.9625 40.275L44.973 39.7093C44.9844 39.0989 45.1064 38.8143 45.5295 38.4113C46.0493 37.9162 46.0371 37.9177 49.9378 37.8953C54.7335 37.8677 54.1949 38.3792 54.224 33.826C54.2508 29.6439 54.2926 29.7757 52.9387 29.7757H52.3567L52.3318 32.2334C52.291 36.2813 52.6442 36.0633 46.1195 36.0657C41.9723 36.0672 41.4017 36.0821 41.164 36.1944L40.8954 36.3213V37.1447C40.8954 37.6999 40.8676 37.9588 40.81 37.9397C40.763 37.9241 40.4087 37.6823 40.0227 37.4023L39.3209 36.8932L39.3201 36.4213C39.3189 35.6509 39.6624 35.084 40.3524 34.7175L40.6979 34.5338L45.5816 34.4945L50.4652 34.4552L50.6161 34.2695C50.7564 34.0969 50.767 33.9333 50.767 31.9354V29.7869L49.0888 29.7617C47.5374 29.7383 47.3861 29.7234 47.0856 29.5632C46.0726 29.0236 45.8461 28.5365 45.8042 26.8086L45.7732 25.5275L44.9518 26.7167C42.5229 30.2331 40.1832 32.746 37.1495 35.0965L36.839 35.3371L35.9873 35.0409C32.837 33.9456 29.6536 33.9448 26.3874 35.0386L25.2655 35.4144L24.6895 34.9855C22.2541 33.1721 19.3847 30.1152 17.4658 27.2896C16.4974 25.8639 16.5591 26.074 16.5819 24.2785C16.604 22.5423 16.5593 22.3576 16.0378 22.0291C15.7883 21.8719 15.788 21.871 15.7834 21.164C15.7629 18.0075 13.6465 16.2838 10.3327 16.7247ZM50.4597 18.1376C48.9359 18.4574 47.7638 19.7062 48.5034 20.222C48.8081 20.4346 49.0836 20.3646 49.5881 19.9465C50.6827 19.0394 51.9286 19.1111 53.0164 20.1437C53.5286 20.6299 53.7882 20.6911 54.0702 20.3921C54.9668 19.4416 52.27 17.7576 50.4597 18.1376ZM8.7472 18.8378L8.51636 19.0677V20.6467V22.2257H9.14815H9.77993V20.6467V19.0677L9.5491 18.8378C9.42211 18.7114 9.24173 18.608 9.14815 18.608C9.05457 18.608 8.87419 18.7114 8.7472 18.8378ZM12.9783 18.6969C12.6366 18.8872 12.623 18.9625 12.623 20.6678V22.3043H13.2592H13.8954L13.8712 20.6548C13.8489 19.1267 13.8354 18.9939 13.6891 18.8509C13.4854 18.6518 13.1786 18.5854 12.9783 18.6969ZM50.4408 19.8539C49.9284 20.0604 49.5297 20.3836 49.2946 20.783L49.0936 21.1246L48.4891 21.1257C48.1566 21.1263 47.8134 21.1458 47.7266 21.169C47.605 21.2015 47.4988 21.1181 47.266 20.8075C46.1415 19.307 43.816 20.0782 43.8199 21.9504C43.8237 23.8147 46.0043 24.5852 47.2382 23.1584L47.5686 22.7763L48.3189 22.7821L49.0691 22.7879L49.3893 23.1947C50.3058 24.3592 51.8135 24.4447 52.7918 23.3878C54.2988 21.7596 52.4834 19.031 50.4408 19.8539ZM50.4418 21.194C50.1695 21.4653 50.1352 21.5422 50.1356 21.8822C50.1365 23.0921 51.5974 23.4371 52.1375 22.3548C52.6474 21.3331 51.2576 20.3816 50.4418 21.194ZM30.4314 36.3494C30.3011 36.3679 29.9187 36.4202 29.5814 36.4656C27.3971 36.7598 24.9976 37.8441 22.1912 39.8049C21.9157 39.9974 21.5604 40.1872 21.4015 40.2267C21.2426 40.2662 20.7572 40.3784 20.3229 40.4762C15.5532 41.5493 12.8183 43.9778 13.3333 46.6826C13.5222 47.6741 14.8354 49.1227 15.5454 49.1227C15.5691 49.1227 15.5909 48.7423 15.5939 48.2773C15.6003 47.2457 15.864 46.3861 16.4349 45.535C19.3655 41.1667 26.0554 43.1771 26.0834 48.4346L26.0879 49.28H30.7671H35.4462V48.5061C35.4462 41.6066 45.5272 41.3922 45.8494 48.2849L45.893 49.2165L46.1385 49.1691C50.917 48.2447 47.6807 42.3315 41.6866 41.0349L41.0825 40.9042L40.5548 40.3012C38.2472 37.6639 33.6921 35.8858 30.4314 36.3494ZM30.6045 40.3595C29.2497 41.7252 28.1294 42.8754 28.1149 42.9155C28.0995 42.9579 28.5519 42.9883 29.2008 42.9883C29.8125 42.9883 30.313 43.011 30.313 43.0387C30.313 43.0665 30.1367 43.4646 29.9213 43.9235C28.6793 46.5689 28.3081 47.5085 28.5253 47.4572C28.7119 47.4132 33.8841 42.2933 33.83 42.2062C33.7978 42.1544 33.3656 42.1232 32.681 42.1232H31.5836L31.6893 41.8283C31.7474 41.6661 32.119 40.7964 32.515 39.8955C33.6886 37.2257 33.7211 37.2179 30.6045 40.3595ZM20.2785 44.644C17.4732 45.0602 16.019 48.2976 17.5732 50.6665C19.6834 53.8828 24.7102 52.3592 24.7049 48.5049C24.7015 46.0514 22.6796 44.2879 20.2785 44.644ZM39.443 44.8045C36.7025 45.7431 35.909 49.2305 37.9632 51.3081C40.3567 53.7291 44.5281 51.9695 44.5281 48.5388C44.5281 45.8701 41.9212 43.9557 39.443 44.8045ZM20.3193 47.9788C19.869 48.4272 20.1934 49.2371 20.8233 49.2371C21.2763 49.2371 21.5469 48.9726 21.5469 48.5299C21.5469 47.8651 20.7794 47.5205 20.3193 47.9788ZM40.2206 47.9788C40.0269 48.1716 39.9952 48.2804 40.0249 48.6508C40.0841 49.3878 41.2444 49.3955 41.4067 48.66C41.5556 47.9848 40.7051 47.4963 40.2206 47.9788Z" fill="#234D69"/>
</svg>
