<svg width="35" height="35" viewBox="0 0 35 35" fill="none" xmlns="http://www.w3.org/2000/svg">
<path id="Vector" d="M12.7114 35L12.0149 29.4C11.6376 29.2542 11.2821 29.0792 10.9484 28.875C10.6146 28.6708 10.2881 28.4521 9.96891 28.2188L4.78856 30.4062L0 22.0938L4.48383 18.6812C4.45481 18.4771 4.4403 18.2802 4.4403 18.0906V16.9094C4.4403 16.7198 4.45481 16.5229 4.48383 16.3188L0 12.9062L4.78856 4.59375L9.96891 6.78125C10.2881 6.54792 10.6219 6.32917 10.9701 6.125C11.3184 5.92083 11.6667 5.74583 12.0149 5.6L12.7114 0H22.2886L22.9851 5.6C23.3624 5.74583 23.7179 5.92083 24.0516 6.125C24.3854 6.32917 24.7119 6.54792 25.0311 6.78125L30.2114 4.59375L35 12.9062L30.5162 16.3188C30.5452 16.5229 30.5597 16.7198 30.5597 16.9094V18.0906C30.5597 18.2802 30.5307 18.4771 30.4726 18.6812L34.9565 22.0938L30.1679 30.4062L25.0311 28.2188C24.7119 28.4521 24.3781 28.6708 24.0299 28.875C23.6816 29.0792 23.3333 29.2542 22.9851 29.4L22.2886 35H12.7114ZM15.7587 31.5H19.1978L19.8072 26.8625C20.7069 26.6292 21.5413 26.2865 22.3103 25.8344C23.0794 25.3823 23.7832 24.8354 24.4216 24.1938L28.7313 25.9875L30.4291 23.0125L26.6853 20.1687C26.8304 19.7604 26.932 19.3302 26.99 18.8781C27.0481 18.426 27.0771 17.9667 27.0771 17.5C27.0771 17.0333 27.0481 16.574 26.99 16.1219C26.932 15.6698 26.8304 15.2396 26.6853 14.8313L30.4291 11.9875L28.7313 9.0125L24.4216 10.85C23.7832 10.1792 23.0794 9.61771 22.3103 9.16562C21.5413 8.71354 20.7069 8.37083 19.8072 8.1375L19.2413 3.5H15.8022L15.1928 8.1375C14.2931 8.37083 13.4587 8.71354 12.6897 9.16562C11.9206 9.61771 11.2168 10.1646 10.5784 10.8062L6.26866 9.0125L4.5709 11.9875L8.31468 14.7875C8.16957 15.225 8.06799 15.6625 8.00995 16.1C7.95191 16.5375 7.92289 17.0042 7.92289 17.5C7.92289 17.9667 7.95191 18.4187 8.00995 18.8562C8.06799 19.2937 8.16957 19.7312 8.31468 20.1687L4.5709 23.0125L6.26866 25.9875L10.5784 24.15C11.2168 24.8208 11.9206 25.3823 12.6897 25.8344C13.4587 26.2865 14.2931 26.6292 15.1928 26.8625L15.7587 31.5ZM17.5871 23.625C19.2703 23.625 20.7069 23.0271 21.8968 21.8312C23.0867 20.6354 23.6816 19.1917 23.6816 17.5C23.6816 15.8083 23.0867 14.3646 21.8968 13.1687C20.7069 11.9729 19.2703 11.375 17.5871 11.375C15.8748 11.375 14.431 11.9729 13.2556 13.1687C12.0802 14.3646 11.4925 15.8083 11.4925 17.5C11.4925 19.1917 12.0802 20.6354 13.2556 21.8312C14.431 23.0271 15.8748 23.625 17.5871 23.625Z" fill="#DFF2FB"/>
</svg>
