<svg width="35" height="35" viewBox="0 0 35 35" fill="none" xmlns="http://www.w3.org/2000/svg">
<path id="Vector" d="M0 35V30.625H6.01562L5.14062 29.8594C3.24479 28.1823 1.91406 26.2682 1.14844 24.1172C0.382812 21.9661 0 19.7969 0 17.6094C0 13.5625 1.21224 9.96224 3.63672 6.80859C6.0612 3.65495 9.22396 1.56771 13.125 0.546875V5.14062C10.5 6.08854 8.38542 7.70182 6.78125 9.98047C5.17708 12.2591 4.375 14.8021 4.375 17.6094C4.375 19.25 4.6849 20.8451 5.30469 22.3945C5.92448 23.944 6.89062 25.375 8.20312 26.6875L8.75 27.2344V21.875H13.125V35H0ZM21.875 34.4531V29.8594C24.5 28.9115 26.6146 27.2982 28.2188 25.0195C29.8229 22.7409 30.625 20.1979 30.625 17.3906C30.625 15.75 30.3151 14.1549 29.6953 12.6055C29.0755 11.056 28.1094 9.625 26.7969 8.3125L26.25 7.76562V13.125H21.875V0H35V4.375H28.9844L29.8594 5.14062C31.6458 6.92708 32.9492 8.86849 33.7695 10.9648C34.5898 13.0612 35 15.2031 35 17.3906C35 21.4375 33.7878 25.0378 31.3633 28.1914C28.9388 31.3451 25.776 33.4323 21.875 34.4531Z" fill="#DFF2FB"/>
</svg>
