<svg width="19" height="19" viewBox="0 0 19 19" fill="none" xmlns="http://www.w3.org/2000/svg">
<path id="Share" d="M15.8333 0C14.9935 0 14.188 0.33363 13.5942 0.927495C13.0003 1.52136 12.6667 2.32681 12.6667 3.16667C12.6681 3.38926 12.693 3.61108 12.7409 3.82845L5.55094 7.42342C5.2544 7.08202 4.88818 6.80808 4.47691 6.62005C4.06565 6.43202 3.61888 6.33426 3.16667 6.33333C2.32681 6.33333 1.52136 6.66696 0.927495 7.26083C0.33363 7.85469 0 8.66015 0 9.5C0 10.3399 0.33363 11.1453 0.927495 11.7392C1.52136 12.333 2.32681 12.6667 3.16667 12.6667C3.61902 12.6662 4.06601 12.5687 4.47756 12.381C4.8891 12.1932 5.25563 11.9194 5.55249 11.5781L12.7378 15.1715C12.6909 15.389 12.6671 15.6109 12.6667 15.8333C12.6667 16.6732 13.0003 17.4786 13.5942 18.0725C14.188 18.6664 14.9935 19 15.8333 19C16.6732 19 17.4786 18.6664 18.0725 18.0725C18.6664 17.4786 19 16.6732 19 15.8333C19 14.9935 18.6664 14.188 18.0725 13.5942C17.4786 13.0003 16.6732 12.6667 15.8333 12.6667C15.381 12.6672 14.934 12.7646 14.5224 12.9524C14.1109 13.1401 13.7444 13.4139 13.4475 13.7552L6.26221 10.1618C6.3091 9.9443 6.33294 9.72248 6.33333 9.5C6.33181 9.27793 6.30694 9.05663 6.25911 8.83976L13.4491 5.24479C13.7457 5.58592 14.112 5.85956 14.5233 6.04732C14.9345 6.23508 15.3812 6.3326 15.8333 6.33333C16.6732 6.33333 17.4786 5.9997 18.0725 5.40584C18.6664 4.81197 19 4.00652 19 3.16667C19 2.32681 18.6664 1.52136 18.0725 0.927495C17.4786 0.33363 16.6732 0 15.8333 0Z" fill="#DFF2FB"/>
</svg>
