<svg width="195" height="196" viewBox="0 0 195 196" fill="none" xmlns="http://www.w3.org/2000/svg">
<g id="Vector" filter="url(#filter0_d_38_286)">
<path fill-rule="evenodd" clip-rule="evenodd" d="M88.8983 12.1358C55.8803 13.9764 25.4215 37.3641 15.8671 68.2126C12.8266 78.0294 11.7946 85.3144 12.0329 95.2804C13.585 160.222 88.9118 196.635 140.921 157.585C204.017 110.209 167.375 7.76107 88.8983 12.1358ZM91.9474 22.5556C89.4264 23.1926 89.8841 26.8208 92.4785 26.7663C94.8751 26.7158 95.4712 23.5874 93.2601 22.6635C92.8838 22.5062 92.5497 22.3885 92.5179 22.4018C92.4861 22.4151 92.2294 22.4844 91.9474 22.5556ZM82.5708 24.4796C81.836 25.4292 82.3362 26.673 83.4561 26.6812C84.4282 26.6881 84.9317 25.2343 84.1895 24.5627C83.7467 24.162 82.852 24.116 82.5708 24.4796ZM100.618 24.4796C99.8829 25.4292 100.383 26.673 101.503 26.6812C102.475 26.6881 102.979 25.2343 102.236 24.5627C101.794 24.162 100.899 24.116 100.618 24.4796ZM73.1622 25.946C72.1963 26.9119 72.1727 28.0923 73.1019 28.9604C74.4626 30.2315 76.7716 29.396 76.7716 27.6325C76.7716 25.4488 74.6505 24.4577 73.1622 25.946ZM109.379 25.5098C108.681 25.8567 108.078 27.1291 108.248 27.8989C108.598 29.4934 110.76 30.1691 111.892 29.0377C113.647 27.2822 111.599 24.406 109.379 25.5098ZM64.9913 30.2163C64.5633 30.8272 64.5891 31.2347 65.0901 31.7724C65.8752 32.6151 67.1329 32.112 67.1329 30.9552C67.1329 29.8545 65.6121 29.3297 64.9913 30.2163ZM118.066 30.2889C117.321 31.4246 118.584 32.6871 119.72 31.9431C120.081 31.7062 120.248 31.4135 120.248 31.018C120.248 29.8068 118.717 29.2953 118.066 30.2889ZM56.7264 33.0515C53.8063 33.6786 54.5067 38.1159 57.5133 38.0372C58.5387 38.0103 59.2971 37.5011 59.6812 36.5815C60.4802 34.6692 58.7604 32.6149 56.7264 33.0515ZM126.484 33.2244C124.515 34.1247 124.606 37.037 126.629 37.8464C128.316 38.5213 130.16 37.3614 130.16 35.6256C130.16 33.5995 128.309 32.3899 126.484 33.2244ZM89.2814 34.606C81.6303 35.0553 72.3052 37.093 70.8707 38.629C68.8418 40.8016 70.0294 55.8845 72.9096 64.5212C77.0279 76.8712 87.5169 90.4375 92.6198 90.0144C96.7698 89.6703 106.302 77.7087 110.156 68.0075C114.727 56.5061 115.999 39.6569 112.434 37.8501C108.61 35.9123 96.3319 34.1917 89.2814 34.606ZM49.4821 40.4944C48.4901 40.9864 48.8984 42.6803 50.0089 42.6803C50.6001 42.6803 51.1368 42.0653 51.1368 41.3877C51.1368 40.6404 50.2035 40.1365 49.4821 40.4944ZM56.1151 44.5351C52.6975 45.2692 53.2469 50.2666 56.7455 50.2678C59.0215 50.2688 60.2919 48.3028 59.3527 46.2339C58.7647 44.9391 57.4489 44.2488 56.1151 44.5351ZM126.327 44.9153C123.836 46.5573 124.912 50.2701 127.877 50.2674C130.83 50.2649 131.947 46.6281 129.498 44.9916C128.614 44.4016 127.159 44.3665 126.327 44.9153ZM43.4464 45.0348C41.1936 45.8322 40.4607 48.5936 42.0121 50.4374C43.7454 52.4972 47.354 51.4632 47.7545 48.7919C48.1292 46.2932 45.7509 44.219 43.4464 45.0348ZM139.688 44.9337C136.056 46.0284 136.647 51.4987 140.396 51.4987C143.534 51.4987 144.98 48.2804 142.884 45.9606C141.938 44.913 140.882 44.5738 139.688 44.9337ZM89.2758 45.4883C88.5429 45.9897 88.5866 45.889 87.1149 50.4733C81.7074 67.3184 81.6627 65.6491 87.522 65.6491C90.5235 65.6491 91.1519 65.6989 91.0633 65.9294C90.9612 66.1956 89.2527 72.333 88.4336 75.3764C87.829 77.6224 88.3009 78.7741 89.8258 78.7741C91.2196 78.7741 91.2335 78.7542 93.6856 73.237C94.1618 72.1654 95.6267 68.8698 96.9408 65.9134C99.4992 60.1579 99.4883 60.1924 99.0205 59.2876C98.5331 58.3452 98.176 58.2663 94.3999 58.2663C91.6627 58.2663 90.9017 58.2091 90.9839 58.0099C91.042 57.869 92.0778 55.5387 93.2859 52.8317C95.8067 47.1828 95.9226 46.7405 95.1294 45.7977L94.5769 45.1413H92.1799C90.2647 45.1413 89.6809 45.211 89.2758 45.4883ZM38.8321 55.6113C32.3269 56.4804 28.9956 60.403 28.99 67.2005L28.9884 69.0595L28.2598 69.4069C26.9901 70.0123 26.7424 70.9075 26.737 74.9086C26.7338 77.3597 26.6177 78.9945 26.3257 80.7028C25.3341 86.5027 24.879 95.8397 25.3669 100.371L25.5394 101.972L31.0066 101.909C37.2779 101.836 37.4901 101.781 38.5776 99.9306L39.1398 98.9743L39.204 92.5945L39.2683 86.2147L38.5596 86.0999C34.2407 85.3989 32.0646 81.9733 32.0646 75.8751V73.0319H41.0058H49.947L49.875 76.5695C49.7649 81.9725 46.9826 86.1553 43.4977 86.1567C43.1638 86.1569 43.1388 86.5861 43.1388 92.2992C43.1388 98.834 43.0133 100.036 42.2063 101.225L41.7155 101.948H51.7211C65.7013 101.948 66.5177 102.328 66.5177 108.826V111.522L64.5695 112.247L62.6212 112.972V110.11V107.248L62.0218 106.649L61.4223 106.049H43.7659H26.1095L26.2118 106.511C26.268 106.765 26.556 108.08 26.8515 109.433C28.3264 116.189 31.7574 124.71 34.9301 129.497C35.7379 130.715 35.9256 131.18 36.0289 132.218C37.2001 143.982 50.9283 155.261 64.7585 155.822L67.8187 155.946L70.0906 157.025C74.2606 159.006 79.671 160.555 85.59 161.461C87.9695 161.826 98.2673 161.824 100.356 161.459C103.356 160.935 106.215 160.358 107.328 160.053C110.984 159.05 114.437 157.776 116.983 156.491C118.024 155.965 118.414 155.883 119.883 155.88C133.725 155.849 148.049 144.354 149.301 132.271C149.403 131.287 149.576 130.79 150.003 130.249C150.898 129.116 153.145 124.884 154.576 121.635C159.892 109.569 161.444 96.7769 159.184 83.6553L158.736 81.0513L156.872 79.4512C155.847 78.5713 154.381 77.2663 153.614 76.5517C152.37 75.3934 152.178 75.282 151.849 75.5263C151.646 75.677 151.028 76.1452 150.475 76.5666C147.059 79.1742 141.773 78.9295 138.547 76.0143L137.467 75.0376L136.584 75.8513C136.099 76.2988 135.57 76.7089 135.409 76.7625C135.17 76.8422 135.116 77.5407 135.117 80.5812L135.117 84.3022L135.685 84.8706L136.253 85.4391L144.503 85.5417C153.701 85.6559 153.526 85.6288 155.096 87.1981C156.704 88.8063 156.643 88.3305 156.708 99.7162C156.798 115.451 157.471 114.712 142.941 114.83C131.868 114.92 132.758 114.702 132.758 117.329C132.758 118.231 132.735 118.967 132.707 118.963C132.678 118.959 131.779 118.521 130.707 117.989L128.759 117.021L128.786 115.546C128.816 113.954 129.133 113.212 130.231 112.161C131.581 110.87 131.549 110.874 141.679 110.816C154.132 110.744 152.734 112.078 152.809 100.205C152.879 89.2995 152.987 89.6432 149.472 89.6432H147.96L147.896 96.0519C147.79 106.607 148.707 106.039 131.763 106.045C120.994 106.049 119.512 106.088 118.895 106.38L118.197 106.711V108.858C118.197 110.306 118.125 110.981 117.976 110.932C117.854 110.891 116.934 110.26 115.931 109.53L114.109 108.203L114.107 106.972C114.104 104.963 114.995 103.485 116.787 102.529L117.685 102.05L130.367 101.948L143.048 101.845L143.44 101.361C143.805 100.911 143.832 100.484 143.832 95.2747V89.6723L139.474 89.6065C135.445 89.5456 135.053 89.5066 134.272 89.0891C131.642 87.6819 131.053 86.4118 130.945 81.9062L130.864 78.5655L128.731 81.6665C122.424 90.8358 116.348 97.3884 108.47 103.518L107.664 104.145L105.452 103.373C97.2714 100.516 89.0047 100.514 80.5231 103.367L77.6096 104.347L76.1139 103.228C69.7895 98.4995 62.3382 90.5283 57.3552 83.1605C54.8405 79.4426 55.0007 79.9906 55.06 75.3087C55.1174 70.7814 55.0013 70.2996 53.647 69.443C52.9991 69.0333 52.9983 69.0308 52.9864 67.1872C52.9331 58.9564 47.4372 54.4617 38.8321 55.6113ZM143.034 59.2956C139.077 60.1294 136.033 63.3858 137.954 64.7309C138.745 65.2853 139.461 65.1028 140.771 64.0126C143.613 61.6472 146.849 61.834 149.673 64.5267C151.004 65.7945 151.677 65.954 152.41 65.1745C154.738 62.696 147.735 58.3046 143.034 59.2956ZM34.7148 61.1216L34.1153 61.721V65.8384V69.9557H35.756H37.3966V65.8384V61.721L36.7972 61.1216C36.4674 60.7918 35.999 60.5221 35.756 60.5221C35.513 60.5221 35.0446 60.7918 34.7148 61.1216ZM45.7023 60.7541C44.8147 61.2502 44.7794 61.4466 44.7794 65.8933V70.1608H46.4315H48.0836L48.0209 65.8595C47.9628 61.8748 47.928 61.5284 47.548 61.1556C47.0191 60.6366 46.2223 60.4633 45.7023 60.7541ZM142.985 63.7712C141.654 64.3095 140.619 65.1522 140.008 66.1938L139.487 67.0846L137.917 67.0875C137.053 67.0889 136.162 67.1398 135.937 67.2003C135.621 67.285 135.345 67.0676 134.741 66.2576C131.821 62.3449 125.782 64.3561 125.792 69.2379C125.802 74.0991 131.464 76.1085 134.668 72.3877L135.526 71.3915L137.475 71.4067L139.423 71.4218L140.254 72.4825C142.634 75.5191 146.55 75.742 149.09 72.986C153.003 68.7404 148.289 61.6252 142.985 63.7712ZM142.988 67.2655C142.281 67.9728 142.192 68.1734 142.192 69.0599C142.195 72.2151 145.989 73.1145 147.391 70.2925C148.715 67.6281 145.106 65.147 142.988 67.2655ZM91.0245 106.785C90.6861 106.833 89.693 106.969 88.8173 107.088C83.145 107.855 76.9139 110.682 69.6263 115.795C68.911 116.297 67.9881 116.792 67.5755 116.895C67.1629 116.998 65.9025 117.291 64.7745 117.546C52.3886 120.344 45.2866 126.677 46.6241 133.73C47.1144 136.315 50.5247 140.092 52.3683 140.092C52.4301 140.092 52.4867 139.1 52.4942 137.888C52.5109 135.198 53.1956 132.956 54.6783 130.737C62.2886 119.346 79.6609 124.589 79.7335 138.298L79.7452 140.503H91.8961H104.047V138.485C104.047 120.493 130.225 119.934 131.062 137.908L131.175 140.337L131.813 140.213C144.222 137.803 135.817 122.384 120.252 119.003L118.683 118.662L117.313 117.089C111.32 110.212 99.4918 105.576 91.0245 106.785ZM91.4741 117.241C87.9557 120.803 85.0465 123.802 85.009 123.906C84.969 124.017 86.1439 124.096 87.8288 124.096C89.4173 124.096 90.7169 124.156 90.7169 124.228C90.7169 124.3 90.2592 125.338 89.6997 126.535C86.4745 133.433 85.5106 135.883 86.0748 135.75C86.5594 135.635 99.9903 122.284 99.8499 122.057C99.7664 121.922 98.644 121.84 96.8662 121.84H94.0164L94.291 121.071C94.4419 120.649 95.4068 118.381 96.4351 116.032C99.4828 109.07 99.5671 109.049 91.4741 117.241ZM64.6593 128.414C57.3745 129.499 53.5982 137.941 57.6343 144.118C63.114 152.505 76.1676 148.532 76.1539 138.482C76.1451 132.084 70.8945 127.485 64.6593 128.414ZM114.426 128.832C107.309 131.28 105.249 140.373 110.583 145.791C116.799 152.104 127.631 147.516 127.631 138.57C127.631 131.611 120.861 126.619 114.426 128.832ZM64.7653 137.11C63.5959 138.279 64.4384 140.391 66.0741 140.391C67.2504 140.391 67.9532 139.701 67.9532 138.547C67.9532 136.813 65.9601 135.915 64.7653 137.11ZM116.445 137.11C115.942 137.612 115.86 137.896 115.937 138.862C116.091 140.784 119.104 140.804 119.525 138.886C119.912 137.125 117.703 135.851 116.445 137.11Z" fill="#234D69"/>
</g>
<defs>
<filter id="filter0_d_38_286" x="0" y="0" width="195.002" height="195.671" filterUnits="userSpaceOnUse" color-interpolation-filters="sRGB">
<feFlood flood-opacity="0" result="BackgroundImageFix"/>
<feColorMatrix in="SourceAlpha" type="matrix" values="0 0 0 0 0 0 0 0 0 0 0 0 0 0 0 0 0 0 127 0" result="hardAlpha"/>
<feMorphology radius="7" operator="dilate" in="SourceAlpha" result="effect1_dropShadow_38_286"/>
<feOffset dx="5" dy="5"/>
<feGaussianBlur stdDeviation="5"/>
<feComposite in2="hardAlpha" operator="out"/>
<feColorMatrix type="matrix" values="0 0 0 0 0.137255 0 0 0 0 0.301961 0 0 0 0 0.411765 0 0 0 0.49 0"/>
<feBlend mode="normal" in2="BackgroundImageFix" result="effect1_dropShadow_38_286"/>
<feBlend mode="normal" in="SourceGraphic" in2="effect1_dropShadow_38_286" result="shape"/>
</filter>
</defs>
</svg>
