<svg width="20" height="20" viewBox="0 0 20 20" fill="none" xmlns="http://www.w3.org/2000/svg">
<path id="Wheel" d="M10 20C8.63333 20 7.34167 19.7375 6.125 19.2125C4.90833 18.6875 3.84583 17.9708 2.9375 17.0625C2.02917 16.1542 1.3125 15.0917 0.7875 13.875C0.2625 12.6583 0 11.3667 0 10C0 8.61667 0.2625 7.32083 0.7875 6.1125C1.3125 4.90417 2.02917 3.84583 2.9375 2.9375C3.84583 2.02917 4.90833 1.3125 6.125 0.7875C7.34167 0.2625 8.63333 0 10 0C11.3833 0 12.6792 0.2625 13.8875 0.7875C15.0958 1.3125 16.1542 2.02917 17.0625 2.9375C17.9708 3.84583 18.6875 4.90417 19.2125 6.1125C19.7375 7.32083 20 8.61667 20 10C20 11.3667 19.7375 12.6583 19.2125 13.875C18.6875 15.0917 17.9708 16.1542 17.0625 17.0625C16.1542 17.9708 15.0958 18.6875 13.8875 19.2125C12.6792 19.7375 11.3833 20 10 20ZM10 14C11 14 11.975 14.1458 12.925 14.4375C13.875 14.7292 14.7667 15.15 15.6 15.7C16.3667 14.9333 16.9583 14.0625 17.375 13.0875C17.7917 12.1125 18 11.0833 18 10C18 7.76667 17.225 5.875 15.675 4.325C14.125 2.775 12.2333 2 10 2C7.76667 2 5.875 2.775 4.325 4.325C2.775 5.875 2 7.76667 2 10C2 11.0833 2.20417 12.1167 2.6125 13.1C3.02083 14.0833 3.61667 14.95 4.4 15.7C5.23333 15.15 6.125 14.7292 7.075 14.4375C8.025 14.1458 9 14 10 14ZM10 16C9.31667 16 8.65 16.0833 8 16.25C7.35 16.4167 6.73333 16.6667 6.15 17C6.73333 17.3333 7.35 17.5833 8 17.75C8.65 17.9167 9.31667 18 10 18C10.6833 18 11.35 17.9167 12 17.75C12.65 17.5833 13.2667 17.3333 13.85 17C13.2667 16.6667 12.65 16.4167 12 16.25C11.35 16.0833 10.6833 16 10 16ZM5 9C5.28333 9 5.52083 8.90417 5.7125 8.7125C5.90417 8.52083 6 8.28333 6 8C6 7.71667 5.90417 7.47917 5.7125 7.2875C5.52083 7.09583 5.28333 7 5 7C4.71667 7 4.47917 7.09583 4.2875 7.2875C4.09583 7.47917 4 7.71667 4 8C4 8.28333 4.09583 8.52083 4.2875 8.7125C4.47917 8.90417 4.71667 9 5 9ZM8 6C8.28333 6 8.52083 5.90417 8.7125 5.7125C8.90417 5.52083 9 5.28333 9 5C9 4.71667 8.90417 4.47917 8.7125 4.2875C8.52083 4.09583 8.28333 4 8 4C7.71667 4 7.47917 4.09583 7.2875 4.2875C7.09583 4.47917 7 4.71667 7 5C7 5.28333 7.09583 5.52083 7.2875 5.7125C7.47917 5.90417 7.71667 6 8 6ZM15 9C15.2833 9 15.5208 8.90417 15.7125 8.7125C15.9042 8.52083 16 8.28333 16 8C16 7.71667 15.9042 7.47917 15.7125 7.2875C15.5208 7.09583 15.2833 7 15 7C14.7167 7 14.4792 7.09583 14.2875 7.2875C14.0958 7.47917 14 7.71667 14 8C14 8.28333 14.0958 8.52083 14.2875 8.7125C14.4792 8.90417 14.7167 9 15 9ZM10 12C10.55 12 11.0208 11.8042 11.4125 11.4125C11.8042 11.0208 12 10.55 12 10C12 9.78333 11.9667 9.57083 11.9 9.3625C11.8333 9.15417 11.7333 8.96667 11.6 8.8L12.95 5.4C13.0667 5.13333 13.0708 4.87083 12.9625 4.6125C12.8542 4.35417 12.6667 4.16667 12.4 4.05C12.15 3.93333 11.8958 3.92917 11.6375 4.0375C11.3792 4.14583 11.2 4.33333 11.1 4.6L9.75 8C9.25 8.08333 8.83333 8.3125 8.5 8.6875C8.16667 9.0625 8 9.5 8 10C8 10.55 8.19583 11.0208 8.5875 11.4125C8.97917 11.8042 9.45 12 10 12Z" fill="#DFF2FB"/>
</svg>
